<svg width="126" height="52" viewBox="0 0 126 52" fill="none" xmlns="http://www.w3.org/2000/svg">
<g filter="url(#filter0_d_22_320)">
<path d="M18.4683 33L11.8984 9.86279H11.7007C12.0083 13.8032 12.1621 16.8647 12.1621 19.0474V33H4.47168V0.875977H16.0293L22.731 23.6836H22.9067L29.4766 0.875977H41.0562V33H33.0801V18.9155C33.0801 18.1831 33.0874 17.3701 33.1021 16.4766C33.1313 15.583 33.2339 13.3931 33.4097 9.90674H33.2119L26.73 33H18.4683ZM63.71 33L62.062 29.7041H61.8862C60.729 31.1396 59.5498 32.1211 58.3486 32.6484C57.1475 33.1758 55.5947 33.4395 53.6904 33.4395C51.3467 33.4395 49.501 32.7363 48.1533 31.3301C46.8057 29.9238 46.1318 27.9463 46.1318 25.3975C46.1318 22.7461 47.0547 20.7759 48.9004 19.4868C50.7461 18.1831 53.4194 17.4507 56.9204 17.2896L61.0732 17.1577V16.8062C61.0732 14.7554 60.0625 13.73 58.041 13.73C56.2246 13.73 53.9175 14.3452 51.1196 15.5757L48.6367 9.90674C51.5371 8.4126 55.1992 7.66553 59.623 7.66553C62.8164 7.66553 65.2847 8.45654 67.0278 10.0386C68.7856 11.6206 69.6646 13.8325 69.6646 16.6743V33H63.71ZM57.3379 27.375C58.3779 27.375 59.2642 27.0454 59.9966 26.3862C60.7437 25.7271 61.1172 24.8701 61.1172 23.8154V21.8818L59.1396 21.9697C56.3125 22.0723 54.8989 23.1123 54.8989 25.0898C54.8989 26.6133 55.7119 27.375 57.3379 27.375ZM93.6367 8.10498H102.689L106.908 22.3872C107.113 23.1343 107.252 24.0352 107.326 25.0898H107.501C107.619 24.0791 107.794 23.1929 108.029 22.4312L112.357 8.10498H121.125L111.281 34.582C110.021 37.9512 108.468 40.3315 106.623 41.7231C104.792 43.1147 102.396 43.8105 99.4375 43.8105C98.2949 43.8105 97.123 43.686 95.9219 43.437V36.6914C96.6982 36.8672 97.5845 36.9551 98.5806 36.9551C99.3423 36.9551 100.009 36.8086 100.58 36.5156C101.151 36.2227 101.649 35.8052 102.074 35.2632C102.499 34.7358 102.953 33.8643 103.437 32.6484L93.6367 8.10498Z" fill="#181818"/>
<path d="M90.5386 7.66553C91.2856 7.66553 91.9961 7.72412 92.6699 7.84131L93.1533 7.9292L92.3843 16.0371C91.6812 15.8613 90.707 15.7734 89.4619 15.7734C87.5869 15.7734 86.2246 16.2056 85.375 17.0698C84.5254 17.9194 84.1006 19.1499 84.1006 20.7612V33H75.5093V8.10498H81.9033L83.2437 12.082H83.6611C84.3789 10.7637 85.375 9.70166 86.6494 8.896C87.9385 8.07568 89.2349 7.66553 90.5386 7.66553Z" fill="#FD6E0A"/>
</g>
<defs>
<filter id="filter0_d_22_320" x="0.47168" y="0.875977" width="124.653" height="50.9346" filterUnits="userSpaceOnUse" color-interpolation-filters="sRGB">
<feFlood flood-opacity="0" result="BackgroundImageFix"/>
<feColorMatrix in="SourceAlpha" type="matrix" values="0 0 0 0 0 0 0 0 0 0 0 0 0 0 0 0 0 0 127 0" result="hardAlpha"/>
<feOffset dy="4"/>
<feGaussianBlur stdDeviation="2"/>
<feComposite in2="hardAlpha" operator="out"/>
<feColorMatrix type="matrix" values="0 0 0 0 0 0 0 0 0 0 0 0 0 0 0 0 0 0 0.25 0"/>
<feBlend mode="normal" in2="BackgroundImageFix" result="effect1_dropShadow_22_320"/>
<feBlend mode="normal" in="SourceGraphic" in2="effect1_dropShadow_22_320" result="shape"/>
</filter>
</defs>
</svg>
